# File created by Blade
# Date/Time:  Thu Sep 25 17:54:10 2014
# Frame Rate: 120.000 fps
#------------------------------------------------------
:FULLY-SPECIFIED
:DEGREES
2622
root -0.038114 32.466295 -6.500585 27.978490 3.214936 0.142374
Spine -28.562324 -3.166838 3.282288
Head 6.250721 -4.676589 -7.873162
LeftShoulder -18.856168 42.937539 23.336331
LeftArm 38.785319 -43.447056 -44.951145
LeftForeArm 20.966687 -0.000000 -1.008311
LeftHand -24.215872 0.000000 3.587734
LeftHandThumb1 -26.253704 0.000000 33.147579
RightShoulder -18.246622 -45.254649 -27.463503
RightArm 44.137965 30.996204 47.257146
RightForeArm 8.431190 -0.000000 -6.165024
RightHand 5.840203 -0.000000 4.858518
RightHandThumb1 -24.326973 -0.000000 -32.862282
LeftUpLeg -22.987903 3.626526 0.155433
LeftLeg -0.755266 -0.000000 0.000000
LeftFoot -5.617735 -3.167910 -1.922468
LeftToeBase 3.771874 -0.000000 -0.000000
RightUpLeg -22.445204 -8.045452 4.767979
RightLeg -1.335459 -0.000000 0.000000
RightFoot -9.103172 -1.974736 11.327704
RightToeBase 15.925206 -0.000000 -0.000000
2623
root -0.039588 32.465810 -6.504921 27.980881 3.225406 0.137588
Spine -28.560544 -3.199635 3.264927
Head 6.302441 -4.599441 -7.805110
LeftShoulder -18.870265 43.009228 23.321905
LeftArm 38.939495 -43.407859 -45.103232
LeftForeArm 21.090006 -0.000000 -1.079676
LeftHand -24.246360 -0.000000 3.715570
LeftHandThumb1 -26.253704 0.000000 33.147579
RightShoulder -18.267642 -45.282171 -27.436690
RightArm 44.221156 31.007963 47.272155
RightForeArm 8.366556 -0.000000 -6.225284
RightHand 5.693673 0.000000 4.954603
RightHandThumb1 -24.326973 -0.000000 -32.862282
LeftUpLeg -22.997108 3.601080 0.173321
LeftLeg -0.757247 -0.000000 0.000000
LeftFoot -5.634822 -3.158274 -1.968408
LeftToeBase 3.835400 -0.000000 -0.000000
RightUpLeg -22.460111 -8.016247 4.768086
RightLeg -1.317372 -0.000000 0.000000
RightFoot -9.162041 -2.039469 11.192031
RightToeBase 16.093645 -0.000000 -0.000000
2624
root -0.041021 32.465756 -6.510601 28.014469 3.225184 0.136618
Spine -28.593367 -3.237854 3.248424
Head 6.355497 -4.526190 -7.744866
LeftShoulder -18.924891 43.118959 23.260647
LeftArm 39.116055 -43.412170 -45.231280
LeftForeArm 21.207420 0.000000 -1.119122
LeftHand -24.314194 0.000000 3.565408
LeftHandThumb1 -26.253704 0.000000 33.147579
RightShoulder -18.214022 -45.233741 -27.487422
RightArm 44.234340 31.036699 47.344503
RightForeArm 8.265171 0.000000 -6.237783
RightHand 5.594750 -0.000000 5.077096
RightHandThumb1 -24.326973 -0.000000 -32.862282
LeftUpLeg -23.048096 3.615257 0.167499
LeftLeg -0.743375 -0.000000 0.000000
LeftFoot -5.644342 -3.166492 -1.946702
LeftToeBase 3.858807 -0.000000 -0.000000
RightUpLeg -22.524729 -8.021240 4.780513
RightLeg -1.276005 -0.000000 0.000000
RightFoot -9.177632 -2.022072 11.179737
RightToeBase 16.085503 -0.000000 -0.000000
2625
root -0.043361 32.465089 -6.515283 28.019597 3.229043 0.129939
Spine -28.598965 -3.275863 3.233617
Head 6.414550 -4.434214 -7.679362
LeftShoulder -18.932823 43.182718 23.228587
LeftArm 39.203157 -43.400488 -45.299842
LeftForeArm 21.256716 -0.000000 -1.131169
LeftHand -24.430061 -0.000000 3.468993
LeftHandThumb1 -26.253704 0.000000 33.147579
RightShoulder -18.198157 -45.234371 -27.503730
RightArm 44.297239 31.062483 47.414278
RightForeArm 8.238326 -0.000000 -6.243420
RightHand 5.449749 0.000000 5.186851
RightHandThumb1 -24.326973 -0.000000 -32.862282
LeftUpLeg -23.062751 3.612325 0.179029
LeftLeg -0.740771 -0.000000 0.000000
LeftFoot -5.649195 -3.160865 -1.943113
LeftToeBase 3.863945 -0.000000 -0.000000
RightUpLeg -22.533278 -7.972358 4.773668
RightLeg -1.280908 -0.000000 0.000000
RightFoot -9.183012 -2.068510 11.180847
RightToeBase 16.053228 -0.000000 -0.000000
2626
root -0.045874 32.464685 -6.520628 28.035982 3.244361 0.122588
Spine -28.615047 -3.332247 3.231140
Head 6.464549 -4.335347 -7.615270
LeftShoulder -18.986275 43.279155 23.164140
LeftArm 39.380628 -43.452804 -45.444797
LeftForeArm 21.404993 -0.000000 -1.143835
LeftHand -24.566328 -0.000000 3.332943
LeftHandThumb1 -26.253704 0.000000 33.147579
RightShoulder -18.214633 -45.285365 -27.464760
RightArm 44.462032 31.204688 47.546827
RightForeArm 8.140703 -0.000000 -6.278591
RightHand 5.383467 -0.000000 5.304975
RightHandThumb1 -24.326973 -0.000000 -32.862282
LeftUpLeg -23.095865 3.583825 0.203347
LeftLeg -0.729688 -0.000000 0.000000
LeftFoot -5.661198 -3.142792 -1.949277
LeftToeBase 3.869884 -0.000000 -0.000000
RightUpLeg -22.558998 -7.938588 4.775523
RightLeg -1.279093 -0.000000 0.000000
RightFoot -9.150969 -2.111541 11.184927
RightToeBase 15.915709 -0.000000 -0.000000
